<svg width="393" height="131" viewBox="0 0 393 131" fill="none" xmlns="http://www.w3.org/2000/svg">
<rect width="393" height="131" fill="#F6F6F6"/>
<path d="M70.043 43.0566V47.9199C70.9854 47.9102 71.874 47.8564 72.9141 47.6367L73.0215 48.3008C71.8643 48.5449 70.8877 48.5889 69.8281 48.5938H69.2812V43.0566H70.043ZM71.7129 45.6738V45.0391H73.6953V42.3242H74.4277V50.3516H73.6953V45.6738H71.7129ZM75.5508 50.791V42.1094H76.2832V50.791H75.5508ZM84.6523 42.1094V50.8105H83.8809V42.1094H84.6523ZM77.8164 45.8105C77.8213 43.9648 78.7393 42.7881 80.0332 42.7832C81.3223 42.7881 82.2549 43.9648 82.25 45.8105C82.2549 47.6611 81.3223 48.833 80.0332 48.8281C78.7393 48.833 77.8213 47.6611 77.8164 45.8105ZM78.5586 45.8105C78.5586 47.2217 79.1641 48.1494 80.0332 48.1445C80.9072 48.1494 81.5078 47.2217 81.5078 45.8105C81.5078 44.3994 80.9072 43.4717 80.0332 43.4668C79.1641 43.4717 78.5586 44.3994 78.5586 45.8105ZM93.334 42.1094V50.8105H92.5723V45.9766H90.4922V48.6133H86.4883V42.793H87.2598V45.0586H89.7402V42.793H90.4922V45.3418H92.5723V42.1094H93.334ZM87.2598 47.9785H89.7402V45.6738H87.2598V47.9785ZM102.133 42.1094V47.4902H101.4V42.1094H102.133ZM94.7305 45.4883C95.9316 45.4883 97.8945 45.4688 99.3496 45.2441L99.4082 45.7617C98.8027 45.8887 98.1387 45.9668 97.4844 46.0156V47.4609H96.7422V46.0596C96.0244 46.0938 95.3555 46.0938 94.8184 46.0938L94.7305 45.4883ZM95.1895 43.7109C95.1895 42.9053 95.9463 42.4219 97.084 42.4219C98.2168 42.4219 98.9834 42.9053 98.9883 43.7109C98.9834 44.4971 98.2168 44.9951 97.084 44.9902C95.9463 44.9951 95.1895 44.4971 95.1895 43.7109ZM95.8926 43.7109C95.8926 44.1553 96.3564 44.4336 97.084 44.4336C97.8115 44.4336 98.29 44.1553 98.2949 43.7109C98.29 43.252 97.8115 42.9688 97.084 42.9785C96.3564 42.9688 95.8926 43.252 95.8926 43.7109ZM96.2832 50.6738V47.8027H97.0352V48.623H101.371V47.8027H102.133V50.6738H96.2832ZM97.0352 50.0586H101.371V49.2383H97.0352V50.0586ZM98.2852 46.9629V46.4062H99.8281V42.2656H100.561V47.4609H99.8281V46.9629H98.2852ZM111.361 46.8652V47.4902H107.826V49.0918H107.064V47.4902H103.412V46.8652H111.361ZM104.428 50.6055V48.2812H105.199V49.9609H110.473V50.6055H104.428ZM104.467 46.1133V42.4414H110.346V43.0566H105.238V43.9648H110.111V44.5605H105.238V45.498H110.395V46.1133H104.467ZM121.732 42.1094V50.8105H120.961V42.1094H121.732ZM114.896 45.8105C114.901 43.9648 115.819 42.7881 117.113 42.7832C118.402 42.7881 119.335 43.9648 119.33 45.8105C119.335 47.6611 118.402 48.833 117.113 48.8281C115.819 48.833 114.901 47.6611 114.896 45.8105ZM115.639 45.8105C115.639 47.2217 116.244 48.1494 117.113 48.1445C117.987 48.1494 118.588 47.2217 118.588 45.8105C118.588 44.3994 117.987 43.4717 117.113 43.4668C116.244 43.4717 115.639 44.3994 115.639 45.8105ZM131.127 46.4062V47.041H123.217V46.4062H125.18V45.1807C124.486 44.9121 124.096 44.4727 124.096 43.8867C124.096 42.8662 125.268 42.2803 127.172 42.2754C129.062 42.2803 130.233 42.8662 130.238 43.8867C130.233 44.4678 129.848 44.9072 129.164 45.1807V46.4062H131.127ZM124.174 49.2383C124.169 48.2471 125.287 47.7002 127.172 47.7051C129.032 47.7002 130.15 48.2471 130.16 49.2383C130.15 50.2295 129.032 50.7715 127.172 50.7715C125.287 50.7715 124.169 50.2295 124.174 49.2383ZM124.887 43.8867C124.882 44.5215 125.751 44.8877 127.172 44.8926C128.578 44.8877 129.452 44.5215 129.457 43.8867C129.452 43.2617 128.578 42.8809 127.172 42.8809C125.751 42.8809 124.882 43.2617 124.887 43.8867ZM124.955 49.2383C124.945 49.8291 125.78 50.1807 127.172 50.1758C128.549 50.1807 129.384 49.8291 129.389 49.2383C129.384 48.6475 128.549 48.3008 127.172 48.291C125.78 48.3008 124.945 48.6475 124.955 49.2383ZM125.941 46.4062H128.402V45.3857C128.036 45.4541 127.626 45.4883 127.172 45.4883C126.718 45.4883 126.308 45.4541 125.941 45.3906V46.4062ZM139.936 43.457V44.082H138.646V45.3027H139.936V45.957H138.646V47.2754H137.885V42.1094H138.646V43.457H139.936ZM132.025 44.6777C132.021 43.4717 132.987 42.6318 134.301 42.6367C135.624 42.6318 136.576 43.4717 136.586 44.6777C136.576 45.8984 135.624 46.7334 134.301 46.7383C132.987 46.7334 132.021 45.8984 132.025 44.6777ZM132.777 44.6777C132.772 45.5127 133.422 46.084 134.301 46.0742C135.189 46.084 135.829 45.5127 135.834 44.6777C135.829 43.8623 135.189 43.2959 134.301 43.291C133.422 43.2959 132.772 43.8623 132.777 44.6777ZM132.963 48.3105V47.6758H138.646V50.791H137.885V48.3105H132.963ZM145.316 42.7832V43.2422C145.312 43.8135 145.312 44.6777 145.092 45.8105L144.32 45.752C144.53 44.7168 144.55 43.9795 144.56 43.4277H140.99V42.7832H145.316ZM140.453 46.6211C141.015 46.6211 141.649 46.6162 142.318 46.5967V44.707H143.08V46.5723C144.042 46.5332 145.038 46.4648 145.941 46.3379L145.99 46.9043C144.169 47.2168 142.079 47.251 140.531 47.2559L140.453 46.6211ZM141.791 50.6055V48.0566H142.562V49.9609H147.592V50.6055H141.791ZM146.527 48.6426V42.1094H147.309V44.9414H148.578V45.5957H147.309V48.6426H146.527Z" fill="#999999"/>
<line x1="155.85" y1="42" x2="155.85" y2="50" stroke="#E0E0E0" stroke-width="0.7"/>
<path d="M169.049 42.1191V48.4863H168.277V45.1562H166.49V44.5215H168.277V42.1191H169.049ZM169.293 49.9609V50.6055H163.473V47.9102H164.244V49.9609H169.293ZM164.869 43.9062C164.869 45.0293 165.738 46.123 167.008 46.5527L166.607 47.168C165.626 46.8164 164.869 46.084 164.498 45.1855C164.122 46.1865 163.321 46.9873 162.291 47.373L161.891 46.748C163.17 46.2988 164.098 45.1562 164.098 43.9062V43.457H162.135V42.8223H166.812V43.457H164.869V43.9062ZM178.404 46.4062V47.041H170.494V46.4062H172.457V45.1855C171.764 44.917 171.373 44.4727 171.373 43.8867C171.373 42.8613 172.545 42.2754 174.449 42.2754C176.334 42.2754 177.516 42.8613 177.516 43.8867C177.516 44.4678 177.13 44.9121 176.441 45.1758V46.4062H178.404ZM174.449 47.7051C176.314 47.7051 177.428 48.2422 177.438 49.2383C177.428 50.2246 176.314 50.7715 174.449 50.7715C172.564 50.7715 171.451 50.2246 171.451 49.2383C171.451 48.2422 172.564 47.7051 174.449 47.7051ZM174.449 48.291C173.053 48.3008 172.223 48.6426 172.232 49.2383C172.223 49.8242 173.053 50.1758 174.449 50.1758C175.826 50.1758 176.666 49.8242 176.666 49.2383C176.666 48.6426 175.826 48.3008 174.449 48.291ZM174.449 42.8809C173.033 42.8809 172.154 43.2617 172.164 43.8867C172.154 44.5215 173.033 44.8926 174.449 44.8926C175.855 44.8926 176.734 44.5215 176.734 43.8867C176.734 43.2617 175.855 42.8809 174.449 42.8809ZM173.219 46.4062H175.68V45.3906C175.313 45.4541 174.903 45.4883 174.449 45.4883C173.995 45.4883 173.585 45.4541 173.219 45.3906V46.4062ZM182.037 43.5156C182.037 44.6973 182.936 45.7812 184.195 46.2109L183.775 46.8164C182.813 46.4648 182.057 45.7471 181.676 44.8438C181.305 45.8643 180.533 46.6699 179.518 47.0605L179.107 46.4453C180.406 45.957 181.275 44.7949 181.285 43.457V42.5586H182.037V43.5156ZM185.924 42.1094V44.375H187.232V45.0195H185.924V47.3926H185.162V42.1094H185.924ZM183.141 47.6172C184.928 47.6172 186.002 48.1934 186.002 49.1895C186.002 50.2051 184.928 50.7715 183.141 50.7715C181.354 50.7715 180.26 50.2051 180.26 49.1895C180.26 48.1934 181.354 47.6172 183.141 47.6172ZM183.141 48.2324C181.832 48.2324 181.021 48.5938 181.031 49.1895C181.021 49.8047 181.832 50.1562 183.141 50.166C184.459 50.1562 185.26 49.8047 185.26 49.1895C185.26 48.5938 184.459 48.2324 183.141 48.2324ZM195.689 46.3086V46.9434H192.105V47.9688H194.723V50.6738H188.746V47.9688H191.354V46.9434H187.779V46.3086H195.689ZM194.938 42.3926V43.0273H193.6V44.8535H194.908V45.4883H188.551V44.8535H189.859V43.0273H188.521V42.3926H194.938ZM189.508 48.5742V50.0488H193.971V48.5742H189.508ZM190.621 44.8535H192.838V43.0273H190.621V44.8535ZM203.609 42.1191V48.6816H202.828V47.4609H200.914V46.8359H202.828V42.1191H203.609ZM203.824 49.9609V50.6055H197.662V47.9492H198.434V49.9609H203.824ZM196.363 45.5566C197.477 45.5566 198.878 45.542 200.26 45.4492C200.431 44.4873 200.46 43.7695 200.465 43.2715H197.145V42.6465H201.227V42.9883C201.227 43.4668 201.227 44.2822 201.041 45.3809C201.383 45.3564 201.715 45.3174 202.037 45.2734L202.096 45.8301C201.285 45.9668 200.436 46.0498 199.605 46.1035V48.1055H198.844V46.1426C197.984 46.1816 197.174 46.1914 196.471 46.1914L196.363 45.5566ZM214.732 42.1094V50.8105H213.961V42.1094H214.732ZM210.113 42.7832C211.402 42.793 212.33 43.9648 212.33 45.8105C212.33 47.6562 211.402 48.8281 210.113 48.8281C208.814 48.8281 207.896 47.6562 207.896 45.8105C207.896 43.9648 208.814 42.793 210.113 42.7832ZM210.113 43.4668C209.244 43.4766 208.639 44.3945 208.639 45.8105C208.639 47.2266 209.244 48.1445 210.113 48.1445C210.982 48.1445 211.588 47.2266 211.588 45.8105C211.588 44.3945 210.982 43.4766 210.113 43.4668ZM224.127 46.4062V47.041H216.217V46.4062H218.18V45.1855C217.486 44.917 217.096 44.4727 217.096 43.8867C217.096 42.8613 218.268 42.2754 220.172 42.2754C222.057 42.2754 223.238 42.8613 223.238 43.8867C223.238 44.4678 222.853 44.9121 222.164 45.1758V46.4062H224.127ZM220.172 47.7051C222.037 47.7051 223.15 48.2422 223.16 49.2383C223.15 50.2246 222.037 50.7715 220.172 50.7715C218.287 50.7715 217.174 50.2246 217.174 49.2383C217.174 48.2422 218.287 47.7051 220.172 47.7051ZM220.172 48.291C218.775 48.3008 217.945 48.6426 217.955 49.2383C217.945 49.8242 218.775 50.1758 220.172 50.1758C221.549 50.1758 222.389 49.8242 222.389 49.2383C222.389 48.6426 221.549 48.3008 220.172 48.291ZM220.172 42.8809C218.756 42.8809 217.877 43.2617 217.887 43.8867C217.877 44.5215 218.756 44.8926 220.172 44.8926C221.578 44.8926 222.457 44.5215 222.457 43.8867C222.457 43.2617 221.578 42.8809 220.172 42.8809ZM218.941 46.4062H221.402V45.3906C221.036 45.4541 220.626 45.4883 220.172 45.4883C219.718 45.4883 219.308 45.4541 218.941 45.3906V46.4062ZM232.936 43.457V44.082H231.646V45.3027H232.936V45.957H231.646V47.2754H230.885V42.1094H231.646V43.457H232.936ZM231.646 47.6758V50.791H230.885V48.3105H225.963V47.6758H231.646ZM227.301 42.6367C228.619 42.627 229.576 43.4766 229.586 44.6777C229.576 45.8984 228.619 46.7383 227.301 46.7383C225.982 46.7383 225.016 45.8984 225.025 44.6777C225.016 43.4766 225.982 42.627 227.301 42.6367ZM227.301 43.291C226.422 43.291 225.768 43.8574 225.777 44.6777C225.768 45.5078 226.422 46.084 227.301 46.0742C228.189 46.084 228.834 45.5078 228.834 44.6777C228.834 43.8574 228.189 43.291 227.301 43.291ZM238.316 42.7832V43.2422C238.307 43.8086 238.307 44.6777 238.092 45.8105L237.32 45.752C237.53 44.7119 237.55 43.9746 237.564 43.4277H233.99V42.7832H238.316ZM236.08 44.707V46.5723C237.042 46.5332 238.038 46.4648 238.941 46.3379L238.99 46.9043C237.174 47.2168 235.074 47.2559 233.531 47.2559L233.453 46.6211C234.015 46.6162 234.649 46.6113 235.318 46.5918V44.707H236.08ZM240.309 42.1094V44.9414H241.578V45.5957H240.309V48.6426H239.527V42.1094H240.309ZM240.592 49.9609V50.6055H234.791V48.0566H235.562V49.9609H240.592Z" fill="#999999"/>
<line x1="248.85" y1="42" x2="248.85" y2="50" stroke="#E0E0E0" stroke-width="0.7"/>
<path d="M262.264 42.1094V50.791H261.512V46.25H260.311V50.3613H259.578V42.3438H260.311V45.6152H261.512V42.1094H262.264ZM258.592 43.2422C258.582 45.4492 257.811 47.5391 255.311 48.9258L254.861 48.3887C256.878 47.2656 257.713 45.6738 257.84 43.877H255.193V43.2422H258.592ZM270.662 42.1191V48.4668H269.9V42.1191H270.662ZM270.936 49.9609V50.6055H265.057V47.8223H265.818V49.9609H270.936ZM265.975 42.7246C267.273 42.7246 268.25 43.6035 268.25 44.8535C268.25 46.123 267.273 46.9922 265.975 46.9922C264.676 46.9922 263.699 46.123 263.699 44.8535C263.699 43.6035 264.676 42.7246 265.975 42.7246ZM265.975 43.3984C265.096 43.3984 264.441 44.0039 264.451 44.8535C264.441 45.7227 265.096 46.3184 265.975 46.3184C266.834 46.3184 267.498 45.7227 267.498 44.8535C267.498 44.0039 266.834 43.3984 265.975 43.3984ZM279.334 42.1094V47.2852H278.562V45.0098H276.814V44.375H278.562V42.1094H279.334ZM276.453 47.5586C278.26 47.5586 279.363 48.1445 279.363 49.1699C279.363 50.1953 278.26 50.7812 276.453 50.791C274.646 50.7812 273.543 50.1953 273.543 49.1699C273.543 48.1445 274.646 47.5586 276.453 47.5586ZM276.453 48.1543C275.125 48.1543 274.295 48.5352 274.305 49.1699C274.295 49.7949 275.125 50.1758 276.453 50.1758C277.781 50.1758 278.602 49.7949 278.602 49.1699C278.602 48.5352 277.781 48.1543 276.453 48.1543ZM275.154 43.7012C275.154 44.834 276.023 45.9082 277.293 46.3477L276.893 46.9629C275.916 46.6113 275.159 45.8838 274.793 44.9805C274.412 46.001 273.606 46.8164 272.576 47.207L272.176 46.5918C273.465 46.123 274.383 44.9512 274.383 43.7109V43.3887H272.42V42.7441H277.098V43.3887H275.154V43.7012ZM288.729 49.043V49.6777H280.779V49.043H284.354V47.168H281.717V42.7246H282.488V44.2969H287V42.7246H287.752V47.168H285.105V49.043H288.729ZM282.488 46.543H287V44.9219H282.488V46.543ZM296.619 42.1094V50.8105H295.848V46.2402H293.943V45.6055H295.848V42.1094H296.619ZM292.42 44.9414C292.42 46.377 293.396 47.7832 294.686 48.3594L294.246 48.9551C293.26 48.501 292.439 47.5537 292.059 46.4062C291.678 47.6172 290.867 48.6328 289.881 49.1113L289.441 48.5156C290.711 47.9199 291.668 46.4355 291.668 44.9414V44.248H289.676V43.623H291.668V42.2754H292.43V43.623H294.393V44.248H292.42V44.9414ZM305.232 42.1094V50.8105H304.471V42.1094H305.232ZM302.596 42.9199V46.0059H299.354V48.0566C300.794 48.0566 302.078 47.9932 303.631 47.7441L303.709 48.3887C302.107 48.6426 300.789 48.7012 299.295 48.7012H298.572V45.3809H301.824V43.5547H298.553V42.9199H302.596ZM310.711 47.5684C312.498 47.5684 313.572 48.1543 313.572 49.1699C313.572 50.1953 312.498 50.7812 310.711 50.791C308.924 50.7812 307.83 50.1953 307.83 49.1699C307.83 48.1543 308.924 47.5684 310.711 47.5684ZM310.711 48.1738C309.402 48.1836 308.592 48.5449 308.602 49.1699C308.592 49.7949 309.402 50.166 310.711 50.166C312.029 50.166 312.83 49.7949 312.83 49.1699C312.83 48.5449 312.029 48.1836 310.711 48.1738ZM313.494 42.1094V44.2969H314.803V44.9512H313.494V47.334H312.732V42.1094H313.494ZM307.83 42.6562V43.9844H310.359V42.6562H311.121V46.6602H307.078V42.6562H307.83ZM307.83 46.0352H310.359V44.5898H307.83V46.0352ZM318.504 43.877C318.504 44.9805 319.451 45.957 320.75 46.3281L320.389 46.9336C319.363 46.626 318.538 45.957 318.143 45.0879C317.752 46.04 316.932 46.7773 315.896 47.1191L315.525 46.5234C316.814 46.1035 317.742 45.0586 317.742 43.877V43.7598H315.74V43.1445H317.742V42.0703H318.514V43.1445H320.496V43.7598H318.504V43.877ZM322.518 42.1191V47.2656H321.756V42.1191H322.518ZM322.518 47.7051V50.6738H316.873V47.7051H322.518ZM317.625 48.3301V50.0488H321.766V48.3301H317.625Z" fill="#666666"/>
<path d="M162.814 60.9883V61.8574C162.805 62.9219 162.805 64.1133 162.492 65.8613L161.711 65.7734C162.038 64.1133 162.038 62.8975 162.043 61.8574V61.623H156.691V60.9883H162.814ZM155.852 67.5605V66.9258H158.957V63.8203H159.709V66.9258H163.762V67.5605H155.852ZM167.082 61.8086C167.087 62.7998 167.746 63.7959 168.859 64.2305L168.449 64.8262C167.624 64.4893 167.028 63.8496 166.721 63.083C166.398 63.9229 165.773 64.665 164.924 65.041L164.504 64.4453C165.646 63.9375 166.345 62.7998 166.35 61.8086V60.6465H167.082V61.8086ZM166.018 66.4766V65.8418H171.867V68.791H171.115V66.4766H166.018ZM169.26 65.3145V60.2754H169.982V62.3848H171.135V60.1191H171.867V65.3633H171.135V63.0293H169.982V65.3145H169.26ZM180.51 60.1094V66.623H179.777V60.1094H180.51ZM173.166 64.7773C174.284 64.25 174.968 63.0488 174.963 62.0234V60.7246H175.705V62.0234C175.705 63.0391 176.34 64.084 177.443 64.5527L177.014 65.1582C176.213 64.792 175.642 64.123 175.344 63.3369C175.036 64.2012 174.426 64.9678 173.596 65.373L173.166 64.7773ZM174.816 68.6055V65.8223H175.578V67.9609H180.773V68.6055H174.816ZM176.691 62.9512V62.3164H178.059V60.2852H178.801V66.3789H178.059V62.9512H176.691ZM188.977 60.1094V68.8105H188.215V64.0254H186.379V63.3906H188.215V60.1094H188.977ZM182.18 66.7109V60.9102H186.232V61.5449H182.951V63.3516H185.852V63.9766H182.951V66.0762C184.543 66.0713 185.568 66.0273 186.76 65.8125L186.848 66.4473C185.583 66.6523 184.523 66.7109 182.844 66.7109H182.18Z" fill="#999999"/>
<line x1="196.85" y1="60" x2="196.85" y2="68" stroke="#E0E0E0" stroke-width="0.7"/>
<path d="M206.807 60.6758C208.652 60.6855 209.98 61.584 209.98 62.9512C209.98 64.2451 208.828 65.0996 207.178 65.2119V67.0332H210.801V67.6777H202.852V67.0332H206.426V65.2119C204.785 65.0947 203.633 64.2402 203.633 62.9512C203.633 61.584 204.966 60.6855 206.807 60.6758ZM204.375 62.9512C204.37 63.9521 205.4 64.6016 206.807 64.6113C208.213 64.6016 209.238 63.9521 209.238 62.9512C209.238 61.9697 208.213 61.3057 206.807 61.3105C205.4 61.3057 204.37 61.9697 204.375 62.9512ZM219.434 65.2949V65.9102H217.344V68.791H216.582V65.9102H214.336V68.791H213.564V65.9102H211.484V65.2949H219.434ZM212.441 61.0859V60.4512H218.467V62.6777H213.232V63.7617H218.652V64.3965H212.461V62.082H217.686V61.0859H212.441ZM227.305 60.1191V66.4863H226.543V60.1191H227.305ZM220.225 64.6309C221.538 64.1182 222.432 62.8486 222.432 61.4766V60.6074H223.213V61.4766C223.203 62.7998 224.106 63.9863 225.4 64.4551L225 65.0703C223.994 64.6846 223.213 63.9033 222.827 62.9023C222.451 63.9668 221.66 64.8213 220.645 65.2266L220.225 64.6309ZM221.699 68.6055V65.9004H222.461V67.9609H227.578V68.6055H221.699ZM235.742 60.9883V61.8574C235.732 62.9219 235.732 64.1133 235.42 65.8613L234.639 65.7734C234.966 64.1133 234.966 62.8975 234.971 61.8574V61.623H229.619V60.9883H235.742ZM228.779 67.5605V66.9258H231.885V63.8203H232.637V66.9258H236.689V67.5605H228.779Z" fill="#999999"/>
<path d="M147.716 87.48C147.332 87.48 147.033 87.3627 146.82 87.128C146.607 86.8933 146.5 86.568 146.5 86.152C146.5 85.7253 146.609 85.3973 146.828 85.168C147.052 84.9333 147.359 84.816 147.748 84.816C147.876 84.816 147.999 84.8293 148.116 84.856C148.239 84.8773 148.359 84.9147 148.476 84.968L148.34 85.368C148.239 85.3253 148.137 85.2933 148.036 85.272C147.94 85.2507 147.841 85.24 147.74 85.24C147.505 85.24 147.327 85.3173 147.204 85.472C147.087 85.6213 147.028 85.848 147.028 86.152C147.028 86.44 147.087 86.664 147.204 86.824C147.321 86.9787 147.492 87.056 147.716 87.056C147.823 87.056 147.935 87.0427 148.052 87.016C148.175 86.984 148.303 86.9413 148.436 86.888V87.32C148.308 87.3733 148.185 87.4133 148.068 87.44C147.951 87.4667 147.833 87.48 147.716 87.48ZM147.5 89.44C147.047 89.44 146.62 89.3547 146.22 89.184C145.82 89.0133 145.468 88.7787 145.164 88.48C144.865 88.176 144.631 87.824 144.46 87.424C144.289 87.024 144.204 86.5973 144.204 86.144C144.204 85.6853 144.289 85.2587 144.46 84.864C144.631 84.464 144.865 84.1147 145.164 83.816C145.468 83.512 145.82 83.2747 146.22 83.104C146.62 82.9333 147.047 82.848 147.5 82.848C147.959 82.848 148.385 82.9333 148.78 83.104C149.18 83.2747 149.529 83.512 149.828 83.816C150.132 84.1147 150.369 84.464 150.54 84.864C150.711 85.2587 150.796 85.6853 150.796 86.144C150.796 86.5973 150.711 87.024 150.54 87.424C150.369 87.824 150.132 88.176 149.828 88.48C149.529 88.7787 149.18 89.0133 148.78 89.184C148.385 89.3547 147.959 89.44 147.5 89.44ZM147.5 88.992C147.895 88.992 148.263 88.92 148.604 88.776C148.951 88.6267 149.255 88.4213 149.516 88.16C149.777 87.8987 149.98 87.5973 150.124 87.256C150.273 86.9093 150.348 86.5387 150.348 86.144C150.348 85.7493 150.273 85.3813 150.124 85.04C149.98 84.6933 149.777 84.3893 149.516 84.128C149.255 83.8667 148.951 83.664 148.604 83.52C148.263 83.3707 147.895 83.296 147.5 83.296C147.105 83.296 146.735 83.3707 146.388 83.52C146.047 83.664 145.745 83.8667 145.484 84.128C145.223 84.3893 145.017 84.6933 144.868 85.04C144.724 85.3813 144.652 85.7493 144.652 86.144C144.652 86.5387 144.724 86.9093 144.868 87.256C145.017 87.5973 145.223 87.8987 145.484 88.16C145.745 88.4213 146.047 88.6267 146.388 88.776C146.735 88.92 147.105 88.992 147.5 88.992ZM158.594 83.3438V89H157.805L154.938 84.8672H154.891V89H154.031V83.3438H154.828L157.695 87.4844H157.75V83.3438H158.594ZM160.234 89H159.32L161.352 83.3438H162.344L164.383 89H163.469L162.953 87.5078H160.75L160.234 89ZM160.996 86.7891H162.703L161.867 84.375H161.828L160.996 86.7891ZM165.008 83.3438L166.578 87.9453H166.641L168.211 83.3438H169.141L167.102 89H166.109L164.078 83.3438H165.008ZM169.859 89V83.3438H173.406V84.0859H170.719V85.7969H173.219V86.5312H170.719V88.2578H173.438V89H169.859ZM174.461 89V83.3438H176.477C177.793 83.3438 178.438 84.0742 178.438 85.1172C178.438 85.8789 178.094 86.4531 177.406 86.7148L178.656 89H177.68L176.531 86.8672H176.477H175.32V89H174.461ZM175.32 86.125H176.391C177.223 86.1211 177.57 85.7539 177.57 85.1172C177.57 84.4805 177.223 84.082 176.391 84.0781H175.32V86.125ZM182.461 89L180.891 83.3438H181.797L182.898 87.7188H182.945L184.094 83.3438H184.984L186.133 87.7188H186.18L187.281 83.3438H188.188L186.617 89H185.75L184.562 84.7734H184.516L183.328 89H182.461ZM188.891 89V83.3438H192.438V84.0859H189.75V85.7969H192.25V86.5312H189.75V88.2578H192.469V89H188.891ZM193.492 89V83.3438H195.562C196.77 83.3438 197.352 83.9883 197.352 84.8281C197.352 85.5352 196.918 85.8906 196.398 86.0234V86.0781C196.961 86.1094 197.57 86.6016 197.57 87.4766C197.57 88.3438 196.977 89 195.656 89H193.492ZM194.352 88.2656H195.578C196.391 88.2617 196.719 87.9062 196.719 87.4375C196.719 86.8945 196.289 86.4609 195.609 86.4609H194.352V88.2656ZM194.352 85.7891H195.492C196.062 85.7852 196.508 85.4414 196.508 84.8984C196.508 84.4297 196.184 84.0781 195.508 84.0781H194.352V85.7891ZM198.211 84.0859V83.3438H202.594V84.0859H200.836V89H199.977V84.0859H198.211ZM208.141 86.1719C208.141 87.9805 207.055 89.0781 205.594 89.0781C204.121 89.0781 203.039 87.9766 203.039 86.1719C203.039 84.3633 204.121 83.2656 205.594 83.2656C207.055 83.2656 208.141 84.3633 208.141 86.1719ZM203.891 86.1719C203.895 87.5469 204.617 88.293 205.594 88.2891C206.562 88.293 207.285 87.5469 207.289 86.1719C207.285 84.7969 206.562 84.0508 205.594 84.0547C204.617 84.0508 203.895 84.7969 203.891 86.1719ZM214.023 86.1719C214.023 87.9805 212.938 89.0781 211.477 89.0781C210.004 89.0781 208.922 87.9766 208.922 86.1719C208.922 84.3633 210.004 83.2656 211.477 83.2656C212.938 83.2656 214.023 84.3633 214.023 86.1719ZM209.773 86.1719C209.777 87.5469 210.5 88.293 211.477 88.2891C212.445 88.293 213.168 87.5469 213.172 86.1719C213.168 84.7969 212.445 84.0508 211.477 84.0547C210.5 84.0508 209.777 84.7969 209.773 86.1719ZM219.555 83.3438V89H218.766L215.898 84.8672H215.852V89H214.992V83.3438H215.789L218.656 87.4844H218.711V83.3438H219.555ZM222.664 89V83.3438H223.523V88.2578H226.078V89H222.664ZM226.891 89V84.7578H227.727V89H226.891ZM226.781 83.6094C226.785 83.3359 227.023 83.1172 227.312 83.1172C227.598 83.1172 227.836 83.3359 227.836 83.6094C227.836 83.8828 227.598 84.1055 227.312 84.1016C227.023 84.1055 226.785 83.8828 226.781 83.6094ZM228.742 89V84.7578H229.547V85.4531H229.594C229.773 84.9805 230.191 84.7031 230.75 84.7031C231.316 84.7031 231.711 84.9805 231.891 85.4531H231.938C232.137 84.9961 232.598 84.7031 233.211 84.7031C233.977 84.7031 234.52 85.1836 234.523 86.1562V89H233.688V86.2344C233.688 85.6602 233.328 85.4219 232.891 85.4219C232.355 85.4219 232.047 85.7891 232.047 86.2969V89H231.219V86.1875C231.219 85.7227 230.902 85.4219 230.445 85.4219C229.977 85.4219 229.578 85.8125 229.578 86.3828V89H228.742ZM235.531 89V84.7578H236.367V89H235.531ZM235.422 83.6094C235.426 83.3359 235.664 83.1172 235.953 83.1172C236.238 83.1172 236.477 83.3359 236.477 83.6094C236.477 83.8828 236.238 84.1055 235.953 84.1016C235.664 84.1055 235.426 83.8828 235.422 83.6094ZM239.367 84.7578V85.4219H238.5V87.75C238.504 88.2305 238.738 88.3164 239.008 88.3203C239.129 88.3203 239.312 88.3086 239.43 88.2969V89.0234C239.316 89.0391 239.137 89.0547 238.906 89.0547C238.254 89.0547 237.664 88.6953 237.672 87.9219V85.4219H237.047V84.7578H237.672V83.7422H238.5V84.7578H239.367ZM241.961 89.0859C240.711 89.0859 239.941 88.2227 239.945 86.9062C239.941 85.6016 240.723 84.7031 241.906 84.7031C242.871 84.7031 243.789 85.3008 243.789 86.8359V87.1328H240.773C240.797 87.9414 241.273 88.3984 241.969 88.3984C242.441 88.3984 242.75 88.1953 242.891 87.9375H243.734C243.547 88.625 242.895 89.0859 241.961 89.0859ZM240.777 86.5078H242.969C242.969 85.8633 242.551 85.3867 241.914 85.3906C241.246 85.3867 240.812 85.9102 240.777 86.5078ZM246.203 89.0859C245.18 89.082 244.43 88.2578 244.43 86.8906C244.43 85.5078 245.191 84.7031 246.211 84.7031C247 84.7031 247.285 85.1797 247.438 85.4453H247.477V83.3438H248.312V89H247.5V88.3359H247.438C247.281 88.6133 246.977 89.082 246.203 89.0859ZM245.281 86.875C245.277 87.7266 245.66 88.3711 246.391 88.375C247.102 88.3711 247.5 87.7656 247.5 86.875C247.5 85.9922 247.109 85.4102 246.391 85.4141C245.652 85.4102 245.277 86.0391 245.281 86.875Z" fill="#999999"/>
</svg>
