<svg width="393" height="78" viewBox="0 0 393 78" fill="none" xmlns="http://www.w3.org/2000/svg">
<rect width="393" height="78" fill="#F6F6F6"/>
<path d="M24.2461 24.5312V30.9883H23.3672V24.5312H24.2461ZM15.3633 28.5859C16.8047 28.5859 19.1602 28.5625 20.9062 28.293L20.9766 28.9141C20.25 29.0664 19.4531 29.1602 18.668 29.2188V30.9531H17.7773V29.2715C16.916 29.3125 16.1133 29.3125 15.4688 29.3125L15.3633 28.5859ZM15.9141 26.4531C15.9141 25.4863 16.8223 24.9062 18.1875 24.9062C19.5469 24.9062 20.4668 25.4863 20.4727 26.4531C20.4668 27.3965 19.5469 27.9941 18.1875 27.9883C16.8223 27.9941 15.9141 27.3965 15.9141 26.4531ZM16.7578 26.4531C16.7578 26.9863 17.3145 27.3203 18.1875 27.3203C19.0605 27.3203 19.6348 26.9863 19.6406 26.4531C19.6348 25.9023 19.0605 25.5625 18.1875 25.5742C17.3145 25.5625 16.7578 25.9023 16.7578 26.4531ZM17.2266 34.8086V31.3633H18.1289V32.3477H23.332V31.3633H24.2461V34.8086H17.2266ZM18.1289 34.0703H23.332V33.0859H18.1289V34.0703ZM19.6289 30.3555V29.6875H21.4805V24.7188H22.3594V30.9531H21.4805V30.3555H19.6289ZM35.3203 30.2383V30.9883H31.0781V32.9102H30.1641V30.9883H25.7812V30.2383H35.3203ZM27 34.7266V31.9375H27.9258V33.9531H34.2539V34.7266H27ZM27.0469 29.3359V24.9297H34.1016V25.668H27.9727V26.7578H33.8203V27.4727H27.9727V28.5977H34.1602V29.3359H27.0469ZM45.0938 24.5312V34.9492H44.2031V24.5312H45.0938ZM36.293 29.0312C36.2988 26.8164 37.1777 25.416 38.5312 25.4102C39.7969 25.416 40.6523 26.6348 40.7695 28.5977H42.1172V24.7539H42.9961V34.4219H42.1172V29.3594H40.7754C40.6875 31.3867 39.8145 32.6582 38.5312 32.6523C37.1777 32.6582 36.2988 31.2461 36.293 29.0312ZM37.1602 29.0312C37.1484 30.7188 37.6875 31.7852 38.5312 31.7734C39.3809 31.7852 39.9199 30.7188 39.9141 29.0312C39.9199 27.3379 39.3809 26.2773 38.5312 26.2773C37.6875 26.2773 37.1484 27.3379 37.1602 29.0312ZM50.2031 27.332C50.1973 29.2188 51.4102 31.1172 52.9219 31.8086L52.3711 32.5586C51.1875 31.9492 50.209 30.707 49.7461 29.2246C49.2832 30.7832 48.3047 32.1191 47.1211 32.7461L46.5234 32.0078C48.0527 31.2578 49.2598 29.2539 49.2656 27.332V25.4336H50.2031V27.332ZM51.7852 28.8438V28.0938H54.2578V24.5312H55.1719V34.9727H54.2578V28.8438H51.7852ZM68.8242 24.5312V34.9492H67.9453V24.5312H68.8242ZM59.7891 32.1719C61.2422 31.3047 62.0918 29.4004 62.0859 27.5078V26.5234H60.082V25.7617H64.8867V26.5234H62.9766V27.5078C62.9766 29.3066 63.791 31.1055 65.2266 31.9375L64.6641 32.6172C63.6387 32.002 62.9121 30.877 62.5488 29.5527C62.1738 30.9883 61.418 32.2129 60.375 32.8633L59.7891 32.1719ZM64.0898 29.043V28.293H65.8477V24.7891H66.7148V34.4102H65.8477V29.043H64.0898ZM75 31.1172C77.2324 31.1172 78.6504 31.8203 78.6562 33.0273C78.6504 34.2227 77.2324 34.9258 75 34.9258C72.7676 34.9258 71.3496 34.2227 71.3555 33.0273C71.3496 31.8203 72.7676 31.1172 75 31.1172ZM70.3008 30.1445V29.3945H74.2266V27.3789H75.1289V29.3945H79.7812V30.1445H70.3008ZM71.4258 25.8203V25.0703H78.5742V25.9492C78.5684 26.793 78.5684 27.6367 78.2812 28.7148L77.3789 28.6094C77.6602 27.5371 77.6602 26.7637 77.6602 25.9492V25.8203H71.4258ZM72.2695 33.0273C72.2637 33.7539 73.3418 34.1992 75 34.1992C76.6641 34.1992 77.7305 33.7539 77.7422 33.0273C77.7305 32.2832 76.6641 31.8262 75 31.8203C73.3418 31.8262 72.2637 32.2832 72.2695 33.0273ZM86.8711 29.0312V29.793H84.5859V31.8438C85.6055 31.8027 86.6309 31.7324 87.5977 31.6211L87.668 32.3125C85.3594 32.6465 82.8398 32.6934 80.8477 32.6875L80.7188 31.9141C81.627 31.9141 82.6348 31.9082 83.6719 31.8789V29.793H81.5156V25.5273H86.8242V26.2773H82.418V29.0312H86.8711ZM88.2891 34.9727V24.5312H89.2031V34.9727H88.2891ZM99.457 27.6953V28.4336H92.3203V24.918H93.2344V27.6953H99.457ZM91.0195 30.6016V29.8516H100.559V30.6016H91.0195ZM92.2617 34.6914V31.668H93.1758V33.9297H99.5156V34.6914H92.2617ZM112.723 25.0469V25.9141C112.729 26.8809 112.729 27.9414 112.441 29.3711L111.527 29.2891C111.656 28.6797 111.727 28.1348 111.762 27.6426L105.422 27.9414L105.293 27.1562L111.803 26.9453C111.814 26.582 111.82 26.2422 111.82 25.9141V25.7969H105.551V25.0469H112.723ZM104.426 30.8242V30.0742H108.293V28.5391H109.219V30.0742H113.906V30.8242H104.426ZM105.633 34.7852V31.7148H106.559V34.0352H112.969V34.7852H105.633ZM123.633 24.543V32.3477H122.754V24.543H123.633ZM115.277 30.6133V25.3984H119.25V26.1602H116.156V27.6016H118.816V28.3281H116.156V29.8516C117.668 29.8398 118.6 29.8047 119.719 29.5703L119.812 30.3203C118.605 30.5605 117.621 30.6133 115.934 30.6133H115.277ZM116.836 34.7266V31.4805H117.773V33.9531H123.949V34.7266H116.836ZM119.309 28.2461V27.5078H120.715V24.7539H121.605V32.0781H120.715V28.2461H119.309ZM134.695 32.8398V33.6133H125.156V32.8398H134.695ZM125.742 30.3438C127.711 29.9863 129.439 28.6973 129.445 26.9688H126.047V26.2188H129.457V24.7891H130.359V26.2188H133.781V26.9688H130.383C130.377 28.6973 132.1 29.9863 134.086 30.3438L133.711 31.0938C132.064 30.7539 130.564 29.8574 129.908 28.498C129.258 29.8574 127.752 30.7539 126.105 31.0938L125.742 30.3438ZM138.938 25.293C140.572 25.2988 141.732 26.2949 141.738 27.7422C141.732 29.1953 140.572 30.1855 138.938 30.1914C137.291 30.1855 136.119 29.1953 136.125 27.7422C136.119 26.2949 137.291 25.2988 138.938 25.293ZM135.586 31.8906C137.508 31.8965 140.162 31.8789 142.465 31.5391L142.535 32.2188C140.15 32.6641 137.59 32.6758 135.715 32.6758L135.586 31.8906ZM137.027 27.7422C137.021 28.7148 137.824 29.3828 138.938 29.3828C140.039 29.3828 140.842 28.7148 140.836 27.7422C140.842 26.7754 140.039 26.1016 138.938 26.1016C137.824 26.1016 137.021 26.7754 137.027 27.7422ZM143.156 34.9727V24.5312H144.07V34.9727H143.156ZM157.547 24.5312V34.9727H156.621V29.0898H154.336V28.3281H156.621V24.5312H157.547ZM148.816 32.1719C150.328 31.4395 151.588 29.4766 151.594 27.625V26.3711H149.215V25.6094H154.91V26.3711H152.52V27.625C152.525 29.3594 153.768 31.2461 155.285 31.9375L154.734 32.6758C153.545 32.0898 152.543 30.8301 152.068 29.377C151.6 30.9238 150.568 32.2656 149.379 32.8867L148.816 32.1719ZM162.809 26.4648C162.814 27.8535 163.834 29.1191 165.375 29.6523L164.906 30.3672C163.717 29.9453 162.809 29.0957 162.363 28.0176C161.918 29.2012 160.963 30.1211 159.738 30.5664L159.246 29.8516C160.805 29.3008 161.895 27.959 161.906 26.4648V26.0195H159.527V25.2695H165.152V26.0195H162.809V26.4648ZM160.605 32.1133V31.3633H167.426V34.9492H166.512V32.1133H160.605ZM166.512 30.8125V24.5312H167.426V27.2852H168.996V28.0703H167.426V30.8125H166.512ZM178.277 24.543V32.418H177.34V30.9531H175.043V30.2031H177.34V24.543H178.277ZM169.582 28.668C170.924 28.6621 172.605 28.6504 174.258 28.5391C174.463 27.3906 174.498 26.5234 174.504 25.9258H170.52V25.1758H175.418V25.5859C175.424 26.1602 175.424 27.1328 175.201 28.4629C175.605 28.4277 176.004 28.3809 176.391 28.3281L176.461 28.9961C175.488 29.1602 174.469 29.2598 173.473 29.3242V31.7266H172.559V29.3711C171.533 29.418 170.555 29.4297 169.711 29.4297L169.582 28.668ZM171.141 34.7266V31.5391H172.066V33.9531H178.535V34.7266H171.141ZM189.516 30.0273V30.7773H180.023V30.0273H189.516ZM181.078 26.9688C181.078 25.6621 182.508 24.8945 184.77 24.9062C187.008 24.8945 188.443 25.6621 188.449 26.9688C188.443 28.2637 187.008 29.043 184.77 29.043C182.508 29.043 181.078 28.2637 181.078 26.9688ZM181.254 34.7266V31.6914H182.18V33.9531H188.461V34.7266H181.254ZM182.027 26.9688C182.021 27.7949 183.088 28.293 184.77 28.293C186.439 28.293 187.506 27.7949 187.512 26.9688C187.506 26.1543 186.439 25.6445 184.77 25.6445C183.088 25.6445 182.021 26.1543 182.027 26.9688ZM202.043 24.5312V34.9727H201.117V29.0898H198.832V28.3281H201.117V24.5312H202.043ZM193.312 32.1719C194.824 31.4395 196.084 29.4766 196.09 27.625V26.3711H193.711V25.6094H199.406V26.3711H197.016V27.625C197.021 29.3594 198.264 31.2461 199.781 31.9375L199.23 32.6758C198.041 32.0898 197.039 30.8301 196.564 29.377C196.096 30.9238 195.064 32.2656 193.875 32.8867L193.312 32.1719ZM207.305 27.7305C207.293 29.4004 208.5 31.2402 210.012 31.9609L209.484 32.6875C208.312 32.1133 207.322 30.8828 206.854 29.4707C206.373 31 205.33 32.3477 204.164 32.9453L203.602 32.2188C205.102 31.4863 206.391 29.5059 206.402 27.7305V26.3711H203.977V25.6094H209.648V26.3711H207.305V27.7305ZM210.926 34.9492V24.5312H211.84V28.75H213.586V29.5352H211.84V34.9492H210.926ZM225.938 29.3711V30.1211H222.164V25.5273H225.809V26.2773H223.09V29.3711H225.938ZM217.16 33.6133V32.8516H221.438V30.6484H222.34V32.8516H226.699V33.6133H217.16ZM217.992 30.1211V25.5273H221.531V26.2891H218.906V29.3594C219.785 29.3535 220.658 29.2891 221.625 29.0664L221.707 29.8398C220.564 30.0977 219.604 30.127 218.566 30.1211H217.992ZM235.957 27.6953V28.4336H228.82V24.918H229.734V27.6953H235.957ZM227.52 30.6016V29.8516H237.059V30.6016H227.52ZM228.762 34.6914V31.668H229.676V33.9297H236.016V34.6914H228.762ZM249.82 24.5312V34.9492H248.941V24.5312H249.82ZM240.785 32.1719C242.238 31.3047 243.088 29.4004 243.082 27.5078V26.5234H241.078V25.7617H245.883V26.5234H243.973V27.5078C243.973 29.3066 244.787 31.1055 246.223 31.9375L245.66 32.6172C244.635 32.002 243.908 30.877 243.545 29.5527C243.17 30.9883 242.414 32.2129 241.371 32.8633L240.785 32.1719ZM245.086 29.043V28.293H246.844V24.7891H247.711V34.4102H246.844V29.043H245.086ZM255.996 31.1172C258.229 31.1172 259.646 31.8203 259.652 33.0273C259.646 34.2227 258.229 34.9258 255.996 34.9258C253.764 34.9258 252.346 34.2227 252.352 33.0273C252.346 31.8203 253.764 31.1172 255.996 31.1172ZM251.297 30.1445V29.3945H255.223V27.3789H256.125V29.3945H260.777V30.1445H251.297ZM252.422 25.8203V25.0703H259.57V25.9492C259.564 26.793 259.564 27.6367 259.277 28.7148L258.375 28.6094C258.656 27.5371 258.656 26.7637 258.656 25.9492V25.8203H252.422ZM253.266 33.0273C253.26 33.7539 254.338 34.1992 255.996 34.1992C257.66 34.1992 258.727 33.7539 258.738 33.0273C258.727 32.2832 257.66 31.8262 255.996 31.8203C254.338 31.8262 253.26 32.2832 253.266 33.0273ZM270.293 24.5312V34.9727H269.367V29.4883H267.082V28.7266H269.367V24.5312H270.293ZM261.68 32.2188C263.209 31.5039 264.352 29.7227 264.352 27.9297V27.0977H261.961V26.3477H264.352V24.7305H265.266V26.3477H267.621V27.0977H265.254V27.9297C265.254 29.6465 266.432 31.3398 267.973 32.0312L267.445 32.7461C266.256 32.207 265.277 31.0645 264.814 29.6934C264.363 31.1465 263.396 32.3594 262.207 32.9336L261.68 32.2188ZM280.957 24.5312V34.9492H280.066V24.5312H280.957ZM272.156 29.0312C272.162 26.8164 273.041 25.416 274.395 25.4102C275.66 25.416 276.516 26.6348 276.633 28.5977H277.98V24.7539H278.859V34.4219H277.98V29.3594H276.639C276.551 31.3867 275.678 32.6582 274.395 32.6523C273.041 32.6582 272.162 31.2461 272.156 29.0312ZM273.023 29.0312C273.012 30.7188 273.551 31.7852 274.395 31.7734C275.244 31.7852 275.783 30.7188 275.777 29.0312C275.783 27.3379 275.244 26.2773 274.395 26.2773C273.551 26.2773 273.012 27.3379 273.023 29.0312ZM288.938 31.5273C288.932 32.4473 289.43 33.4258 290.42 33.9883C291.416 33.373 291.943 32.3301 291.938 31.5273V30.9531H292.84V31.5273C292.834 32.5996 293.625 33.666 294.961 34.1289L294.504 34.8086C293.461 34.4395 292.734 33.7129 292.371 32.8398C292.049 33.6836 291.41 34.4863 290.449 34.8906C289.436 34.5039 288.791 33.7422 288.48 32.8691C288.105 33.707 287.391 34.4336 286.395 34.8086L285.926 34.1289C287.244 33.6367 288.035 32.5234 288.047 31.5273V30.9531H288.938V31.5273ZM285.656 27.5898C285.65 26.1367 286.805 25.1465 288.387 25.1523C289.969 25.1465 291.111 26.1367 291.117 27.5898C291.111 29.0195 289.969 30.0039 288.387 30.0039C286.805 30.0039 285.65 29.0195 285.656 27.5898ZM286.559 27.5898C286.547 28.5566 287.314 29.2363 288.387 29.2422C289.447 29.2363 290.215 28.5566 290.215 27.5898C290.215 26.6172 289.447 25.9258 288.387 25.9375C287.314 25.9258 286.547 26.6172 286.559 27.5898ZM293.098 30.4961V24.543H294.012V30.4961H293.098ZM300.527 25.2109C302.701 25.2168 304.336 26.3535 304.336 28.0703C304.336 29.8047 302.701 30.9414 300.527 30.9297C298.354 30.9414 296.719 29.8047 296.719 28.0703C296.719 26.3535 298.354 25.2168 300.527 25.2109ZM295.781 33.5664V32.793H305.32V33.5664H295.781ZM297.598 28.0703C297.586 29.3359 298.846 30.1797 300.527 30.1797C302.197 30.1797 303.445 29.3359 303.445 28.0703C303.445 26.8223 302.197 25.9551 300.527 25.9609C298.846 25.9551 297.586 26.8223 297.598 28.0703ZM311.32 25.5742V27.0391H313.875V24.5312H314.789V34.9727H313.875V30.6719H311.32V32.3125H306.574V25.5742H311.32ZM307.488 31.5742H310.43V26.3008H307.488V31.5742ZM311.32 29.9102H313.875V27.8008H311.32V29.9102ZM318.234 33.2148L317.32 36.4023H316.453L317.098 33.2148H318.234ZM24.0117 43.5312V53.9727H23.0859V43.5312H24.0117ZM15.8086 47.9727C15.8145 45.7578 16.916 44.3457 18.4688 44.3398C20.0156 44.3457 21.1348 45.7578 21.1289 47.9727C21.1348 50.1934 20.0156 51.5996 18.4688 51.5938C16.916 51.5996 15.8145 50.1934 15.8086 47.9727ZM16.6992 47.9727C16.6992 49.666 17.4258 50.7793 18.4688 50.7734C19.5176 50.7793 20.2383 49.666 20.2383 47.9727C20.2383 46.2793 19.5176 45.166 18.4688 45.1602C17.4258 45.166 16.6992 46.2793 16.6992 47.9727ZM35.3203 48.3711V49.0977H25.7812V48.3711H35.3203ZM26.9297 50.6211V49.9297H34.125V52.1445H27.8672V53.1406H34.4648V53.8086H26.9414V51.5117H33.2109V50.6211H26.9297ZM26.9883 44.5156V43.8477H34.0898V46.0039H27.9375V46.918H34.2773V47.5859H27.0234V45.3711H33.1641V44.5156H26.9883ZM48.7031 49.5898V50.3516H44.3555V53.9492H43.4531V50.3516H39.1641V49.5898H48.7031ZM40.3945 48.1719V44.1172H47.4609V48.1719H40.3945ZM41.2969 47.4453H46.5469V44.8672H41.2969V47.4453ZM57.6914 43.5312V46.6367H59.2734V47.4102H57.6914V51.0781H56.7773V43.5312H57.6914ZM50.0391 49.2266V44.4336H54.6797V45.207H50.9531V48.4531C53.0449 48.459 54.2344 48.3945 55.6289 48.1133L55.7461 48.875C54.2812 49.1562 53.0391 49.2266 50.8477 49.2266H50.0391ZM51.1758 53.7266V50.3164H52.0781V52.9531H58.1719V53.7266H51.1758ZM71.5195 43.5312V53.9727H70.5938V43.5312H71.5195ZM63.3164 47.9727C63.3223 45.7578 64.4238 44.3457 65.9766 44.3398C67.5234 44.3457 68.6426 45.7578 68.6367 47.9727C68.6426 50.1934 67.5234 51.5996 65.9766 51.5938C64.4238 51.5996 63.3223 50.1934 63.3164 47.9727ZM64.207 47.9727C64.207 49.666 64.9336 50.7793 65.9766 50.7734C67.0254 50.7793 67.7461 49.666 67.7461 47.9727C67.7461 46.2793 67.0254 45.166 65.9766 45.1602C64.9336 45.166 64.207 46.2793 64.207 47.9727ZM82.793 48.6875V49.4492H73.3008V48.6875H75.6562V47.2168C74.8242 46.8945 74.3555 46.3672 74.3555 45.6641C74.3555 44.4395 75.7617 43.7363 78.0469 43.7305C80.3145 43.7363 81.7207 44.4395 81.7266 45.6641C81.7207 46.3613 81.2578 46.8887 80.4375 47.2168V48.6875H82.793ZM74.4492 52.0859C74.4434 50.8965 75.7852 50.2402 78.0469 50.2461C80.2793 50.2402 81.6211 50.8965 81.6328 52.0859C81.6211 53.2754 80.2793 53.9258 78.0469 53.9258C75.7852 53.9258 74.4434 53.2754 74.4492 52.0859ZM75.3047 45.6641C75.2988 46.4258 76.3418 46.8652 78.0469 46.8711C79.7344 46.8652 80.7832 46.4258 80.7891 45.6641C80.7832 44.9141 79.7344 44.457 78.0469 44.457C76.3418 44.457 75.2988 44.9141 75.3047 45.6641ZM75.3867 52.0859C75.375 52.7949 76.377 53.2168 78.0469 53.2109C79.6992 53.2168 80.7012 52.7949 80.707 52.0859C80.7012 51.377 79.6992 50.9609 78.0469 50.9492C76.377 50.9609 75.375 51.377 75.3867 52.0859ZM76.5703 48.6875H79.5234V47.4629C79.084 47.5449 78.5918 47.5859 78.0469 47.5859C77.502 47.5859 77.0098 47.5449 76.5703 47.4688V48.6875ZM91.7344 43.5312V47.832H93.4805V48.5938H91.7344V53.9492H90.8203V43.5312H91.7344ZM83.6133 45.9688V45.207H86.2969V43.6602H87.2109V45.207H89.8125V45.9688H83.6133ZM84.2109 49.2266C84.2051 47.8203 85.2832 46.8359 86.7656 46.8359C88.2363 46.8359 89.3086 47.8203 89.3203 49.2266C89.3086 50.6387 88.2363 51.6172 86.7656 51.6172C85.2832 51.6172 84.2051 50.6387 84.2109 49.2266ZM85.0898 49.2266C85.084 50.1758 85.793 50.8438 86.7656 50.832C87.7266 50.8438 88.4297 50.1758 88.4414 49.2266C88.4297 48.2832 87.7266 47.6035 86.7656 47.6094C85.793 47.6035 85.084 48.2832 85.0898 49.2266ZM102.469 46.6953V47.4336H95.332V43.918H96.2461V46.6953H102.469ZM94.0312 49.6016V48.8516H103.57V49.6016H94.0312ZM95.2734 53.6914V50.668H96.1875V52.9297H102.527V53.6914H95.2734ZM116.062 43.543V49.8008H115.137V48.3945H112.371V47.6328H115.137V46.2266H112.477C111.791 47.9023 110.186 49.1152 107.953 49.7773L107.566 49.0508C110.08 48.3066 111.656 46.8945 111.838 45.0898H108.094V44.3164H112.84C112.84 44.7266 112.793 45.1191 112.705 45.4883H115.137V43.543H116.062ZM109.172 51.8984C109.166 50.6562 110.52 49.9062 112.652 49.9062C114.762 49.9062 116.121 50.6562 116.121 51.8984C116.121 53.1465 114.762 53.9023 112.652 53.9023C110.52 53.9023 109.166 53.1465 109.172 51.8984ZM110.074 51.8984C110.08 52.6836 111.082 53.1582 112.652 53.1523C114.199 53.1582 115.201 52.6836 115.207 51.8984C115.201 51.1133 114.199 50.6387 112.652 50.6445C111.082 50.6387 110.08 51.1133 110.074 51.8984ZM127.324 49.5078V50.2812H122.977V53.9492H122.074V50.2812H117.785V49.5078H127.324ZM118.863 46.25C118.869 44.8379 120.34 43.959 122.531 43.9531C124.717 43.959 126.199 44.8379 126.199 46.25C126.199 47.6387 124.717 48.5176 122.531 48.5117C120.34 48.5176 118.869 47.6387 118.863 46.25ZM119.812 46.25C119.801 47.1758 120.908 47.7734 122.531 47.7734C124.154 47.7734 125.256 47.1758 125.262 46.25C125.256 45.3066 124.154 44.7031 122.531 44.7031C120.908 44.7031 119.801 45.3066 119.812 46.25ZM139.816 43.5312V53.9727H138.891V48.0898H136.605V47.3281H138.891V43.5312H139.816ZM131.086 51.1719C132.598 50.4395 133.857 48.4766 133.863 46.625V45.3711H131.484V44.6094H137.18V45.3711H134.789V46.625C134.795 48.3594 136.037 50.2461 137.555 50.9375L137.004 51.6758C135.814 51.0898 134.812 49.8301 134.338 48.377C133.869 49.9238 132.838 51.2656 131.648 51.8867L131.086 51.1719ZM145.078 45.4648C145.084 46.8535 146.104 48.1191 147.645 48.6523L147.176 49.3672C145.986 48.9453 145.078 48.0957 144.633 47.0176C144.188 48.2012 143.232 49.1211 142.008 49.5664L141.516 48.8516C143.074 48.3008 144.164 46.959 144.176 45.4648V45.0195H141.797V44.2695H147.422V45.0195H145.078V45.4648ZM142.875 51.1133V50.3633H149.695V53.9492H148.781V51.1133H142.875ZM148.781 49.8125V43.5312H149.695V46.2852H151.266V47.0703H149.695V49.8125H148.781ZM160.547 43.543V51.418H159.609V49.9531H157.312V49.2031H159.609V43.543H160.547ZM151.852 47.668C153.193 47.6621 154.875 47.6504 156.527 47.5391C156.732 46.3906 156.768 45.5234 156.773 44.9258H152.789V44.1758H157.688V44.5859C157.693 45.1602 157.693 46.1328 157.471 47.4629C157.875 47.4277 158.273 47.3809 158.66 47.3281L158.73 47.9961C157.758 48.1602 156.738 48.2598 155.742 48.3242V50.7266H154.828V48.3711C153.803 48.418 152.824 48.4297 151.98 48.4297L151.852 47.668ZM153.41 53.7266V50.5391H154.336V52.9531H160.805V53.7266H153.41ZM163.734 44.0703V45.6875H166.641V44.0703H167.543V46.0977H170.004V43.5312H170.93V49.2266H170.004V46.8711H167.543V48.8398H162.82V44.0703H163.734ZM163.734 48.0898H166.641V46.4141H163.734V48.0898ZM164.215 53.8086V49.7305H165.141V51.0078H170.004V49.7305H170.918V53.8086H164.215ZM165.141 53.0469H170.004V51.7461H165.141V53.0469ZM185.18 48.4883V49.2617H175.676V48.4883H185.18ZM176.824 52.0508C176.818 50.8555 178.172 50.1758 180.422 50.1758C182.654 50.1758 183.996 50.8555 184.008 52.0508C183.996 53.2578 182.654 53.9258 180.422 53.9258C178.172 53.9258 176.818 53.2578 176.824 52.0508ZM176.883 47.4922V43.9531H183.996V44.7266H177.785V46.7422H184.066V47.4922H176.883ZM177.762 52.0508C177.75 52.7832 178.752 53.1992 180.422 53.1992C182.074 53.1992 183.076 52.7832 183.082 52.0508C183.076 51.3242 182.074 50.9023 180.422 50.8906C178.752 50.9023 177.75 51.3242 177.762 52.0508ZM194.977 43.5312V53.9492H194.086V43.5312H194.977ZM186.176 48.0312C186.182 45.8164 187.061 44.416 188.414 44.4102C189.68 44.416 190.535 45.6348 190.652 47.5977H192V43.7539H192.879V53.4219H192V48.3594H190.658C190.57 50.3867 189.697 51.6582 188.414 51.6523C187.061 51.6582 186.182 50.2461 186.176 48.0312ZM187.043 48.0312C187.031 49.7188 187.57 50.7852 188.414 50.7734C189.264 50.7852 189.803 49.7188 189.797 48.0312C189.803 46.3379 189.264 45.2773 188.414 45.2773C187.57 45.2773 187.031 46.3379 187.043 48.0312ZM207.668 43.5195V47.6328H209.191V48.418H207.668V53.9492H206.754V43.5195H207.668ZM199.746 51.2188V44.6328H202.395V45.3945H200.66V50.4395C201.176 50.4219 201.809 50.375 202.5 50.2227L202.594 50.9961C201.609 51.2012 200.824 51.2188 200.203 51.2188H199.746ZM202.992 51.2188V44.6328H205.77V45.3945H203.906V50.4453C204.721 50.4336 205.371 50.3867 206.109 50.1992L206.203 50.9727C205.289 51.1953 204.551 51.2188 203.496 51.2188H202.992ZM217.863 43.5312V47.6797H219.609V48.4531H217.863V53.9727H216.949V43.5312H217.863ZM210.211 45.2656V44.5039H214.945V48.2305H211.148V50.668C213.082 50.6738 214.436 50.5977 216.012 50.3047L216.105 51.0664C214.465 51.3652 213.076 51.4414 211.066 51.4531H210.234V47.4688H214.031V45.2656H210.211ZM224.625 44.0703V45.6875H227.531V44.0703H228.434V46.0977H230.895V43.5312H231.82V49.2266H230.895V46.8711H228.434V48.8398H223.711V44.0703H224.625ZM224.625 48.0898H227.531V46.4141H224.625V48.0898ZM225.105 53.8086V49.7305H226.031V51.0078H230.895V49.7305H231.809V53.8086H225.105ZM226.031 53.0469H230.895V51.7461H226.031V53.0469ZM237.176 45.4531C237.176 46.8066 238.219 48.1016 239.742 48.6289L239.262 49.3555C238.09 48.9336 237.182 48.0605 236.736 46.9883C236.285 48.1836 235.318 49.1445 234.082 49.6016L233.602 48.875C235.137 48.3242 236.25 46.9355 236.25 45.4648V45.0078H233.895V44.2578H239.508V45.0078H237.176V45.4531ZM235.184 51.0898V50.3281H242.191V53.9492H241.266V51.0898H235.184ZM239.18 47.0352V46.2617H241.266V43.5312H242.191V49.7773H241.266V47.0352H239.18ZM250.02 45.793C250.02 47.0234 250.84 48.2246 252.164 48.7109L251.719 49.4258C250.705 49.0215 249.979 48.2422 249.609 47.3047C249.246 48.3242 248.514 49.168 247.477 49.6133L247.02 48.9219C248.35 48.377 249.141 47.1172 249.152 45.793V45.6641H247.23V44.9141H249.152V43.6602H250.02V44.9141H251.906V45.6641H250.02V45.793ZM248.766 51.2305V50.4805H255.785V53.9492H254.883V51.2305H248.766ZM252.656 49.8711V43.7305H253.547V46.332H254.906V43.543H255.785V49.918H254.906V47.0938H253.547V49.8711H252.656ZM265.91 43.543V49.4961H264.996V43.543H265.91ZM257.555 46.5312C257.549 45.0781 258.703 44.0938 260.285 44.0938C261.867 44.0938 263.01 45.0781 263.016 46.5312C263.01 47.9609 261.867 48.957 260.285 48.957C258.703 48.957 257.549 47.9609 257.555 46.5312ZM258.457 46.5312C258.445 47.498 259.213 48.1777 260.285 48.1719C261.346 48.1777 262.113 47.498 262.113 46.5312C262.113 45.5586 261.346 44.873 260.285 44.8789C259.213 44.873 258.445 45.5586 258.457 46.5312ZM259.137 53.8086V50.0586H265.91V53.8086H259.137ZM260.039 53.0586H265.008V50.8086H260.039V53.0586ZM272.426 43.7188C274.74 43.7188 276.1 44.3574 276.105 45.5117C276.1 46.6953 274.74 47.334 272.426 47.3398C270.1 47.334 268.734 46.6953 268.734 45.5117C268.734 44.3574 270.1 43.7188 272.426 43.7188ZM267.68 48.793V48.043H277.172V48.793H267.68ZM268.828 50.3984V49.6953H275.953V52.0273H269.766V53.1055H276.27V53.832H268.852V51.3477H275.051V50.3984H268.828ZM269.695 45.5117C269.684 46.2383 270.697 46.6367 272.426 46.6367C274.154 46.6367 275.162 46.2383 275.168 45.5117C275.162 44.8262 274.154 44.416 272.426 44.4102C270.697 44.416 269.684 44.8262 269.695 45.5117ZM289.652 43.5312V48.9453H288.75V43.5312H289.652ZM281.215 48.2305C282.768 47.7148 283.881 46.4375 283.887 45.0078V44.8906H281.449V44.1289H287.215V44.8906H284.812V45.0078C284.818 46.3613 285.926 47.5566 287.496 48.0195L287.039 48.7344C285.809 48.3477 284.83 47.5215 284.367 46.4551C283.916 47.6211 282.92 48.5293 281.648 48.957L281.215 48.2305ZM282.891 50.1758V49.4492H289.664V51.9336H283.816V53.0938H290.039V53.832H282.914V51.2422H288.75V50.1758H282.891ZM299.672 44.5039C299.678 45.9746 301.588 47.2402 303.469 47.5039L303.094 48.2539C301.477 47.9844 299.871 47.0879 299.203 45.8105C298.535 47.0996 296.936 47.9844 295.312 48.2539L294.938 47.5039C296.818 47.2402 298.723 45.998 298.723 44.5039V43.9062H299.672V44.5039ZM294.445 50.1758V49.4023H303.938V50.1758H299.625V53.9492H298.723V50.1758H294.445ZM311.355 50.5273C311.35 51.4473 311.848 52.4258 312.838 52.9883C313.834 52.373 314.361 51.3301 314.355 50.5273V49.9531H315.258V50.5273C315.252 51.5996 316.043 52.666 317.379 53.1289L316.922 53.8086C315.879 53.4395 315.152 52.7129 314.789 51.8398C314.467 52.6836 313.828 53.4863 312.867 53.8906C311.854 53.5039 311.209 52.7422 310.898 51.8691C310.523 52.707 309.809 53.4336 308.812 53.8086L308.344 53.1289C309.662 52.6367 310.453 51.5234 310.465 50.5273V49.9531H311.355V50.5273ZM308.074 46.5898C308.068 45.1367 309.223 44.1465 310.805 44.1523C312.387 44.1465 313.529 45.1367 313.535 46.5898C313.529 48.0195 312.387 49.0039 310.805 49.0039C309.223 49.0039 308.068 48.0195 308.074 46.5898ZM308.977 46.5898C308.965 47.5566 309.732 48.2363 310.805 48.2422C311.865 48.2363 312.633 47.5566 312.633 46.5898C312.633 45.6172 311.865 44.9258 310.805 44.9375C309.732 44.9258 308.965 45.6172 308.977 46.5898ZM315.516 49.4961V43.543H316.43V49.4961H315.516ZM320.32 49.7891V51.0078H325.523V49.7891H326.449V53.8086H319.406V49.7891H320.32ZM318.199 49.0508V48.2891H327.691V49.0508H318.199ZM318.738 46.8125C320.596 46.5605 322.477 45.4648 322.477 44.1406V43.6484H323.426V44.1406C323.42 45.4238 325.318 46.5781 327.152 46.8125L326.812 47.5508C325.201 47.3105 323.613 46.4902 322.951 45.3242C322.289 46.4961 320.695 47.3105 319.09 47.5508L318.738 46.8125ZM320.32 53.0703H325.523V51.7344H320.32V53.0703ZM337.16 43.5312V53.9492H336.246V43.5312H337.16ZM329.25 51.2656V44.5625H330.152V50.4688C331.746 50.457 333.387 50.334 335.133 49.9648L335.262 50.75C333.41 51.1367 331.764 51.2656 330.094 51.2656H329.25ZM347.004 43.5312V47.6562H348.75V48.4297H347.004V53.9727H346.09V43.5312H347.004ZM339.398 51.3594V44.5508H344.262V45.3125H340.312V50.5859C342.199 50.5801 343.529 50.498 345.082 50.2109L345.199 51.0078C343.564 51.3008 342.199 51.3594 340.219 51.3594H339.398ZM350.414 53.0703C350.004 53.0645 349.652 52.7246 349.664 52.3086C349.652 51.8984 350.004 51.5586 350.414 51.5586C350.83 51.5586 351.17 51.8984 351.164 52.3086C351.17 52.7246 350.83 53.0645 350.414 53.0703Z" fill="#666666"/>
</svg>
