<svg width="393" height="56" viewBox="0 0 393 56" fill="none" xmlns="http://www.w3.org/2000/svg">
<rect width="393" height="56" fill="white"/>
<path d="M129.014 38.2031C123.594 38.2031 119.15 33.75 119.15 28.3398C119.15 22.9199 123.594 18.4766 129.014 18.4766C134.434 18.4766 138.877 22.9199 138.877 28.3398C138.877 33.75 134.434 38.2031 129.014 38.2031ZM128.75 30.0977C129.404 30.0977 129.873 29.7754 129.971 29.3359C129.98 29.2969 129.98 29.248 129.99 29.2285C130.098 28.8184 130.518 28.5059 131.025 28.1836C132.041 27.5391 132.529 27.002 132.529 25.9473C132.529 24.3066 131.006 23.2324 129.072 23.2324C127.402 23.2324 126.182 23.916 125.771 24.8828C125.703 25.0684 125.645 25.2539 125.645 25.4688C125.645 26.0254 126.084 26.4746 126.68 26.4746C127.1 26.4746 127.422 26.3281 127.666 26.0156L127.754 25.8984C128.057 25.459 128.389 25.3027 128.809 25.3027C129.336 25.3027 129.736 25.6641 129.736 26.1035C129.736 26.6113 129.326 26.8555 128.564 27.3828C127.891 27.8516 127.422 28.3203 127.422 29.0137V29.0723C127.422 29.7461 127.9 30.0977 128.75 30.0977ZM128.75 33.3105C129.541 33.3105 130.137 32.8418 130.137 32.0801C130.137 31.3379 129.541 30.8496 128.75 30.8496C127.959 30.8496 127.344 31.3379 127.344 32.0801C127.344 32.8418 127.959 33.3105 128.75 33.3105Z" fill="#64D972"/>
<path d="M157.141 20.7344V31.2812H155.25V26.375H154.016V30.9844H152.156V20.9844H154.016V24.7656H155.25V20.7344H157.141ZM157.5 33.0938V34.6875H147.5V30.2812H149.5V33.0938H157.5ZM150.906 21.875V26.2969H147.422V27.75C148.977 27.7422 150.133 27.6719 151.484 27.4062L151.656 28.9844C150 29.2812 148.594 29.3281 146.484 29.3281H145.5V24.8281H148.984V23.4375H145.484V21.875H150.906ZM165.984 21.5156V23.1094H161.5V26.875C163.758 26.8594 165.086 26.7891 166.609 26.4844L166.781 28.0781C165.062 28.4375 163.5 28.5 160.641 28.5156H159.516V21.5156H165.984ZM170.734 20.7188V28.9375H168.75V25.6094H165.297V24H168.75V20.7188H170.734ZM170.734 29.5156V34.7812H161.172V29.5156H170.734ZM163.172 31.1094V33.1875H168.781V31.1094H163.172ZM184.344 21.5469V23.1406H181.516C181.531 24.8047 182.516 26.5078 184.828 27.25L183.812 28.7969C182.234 28.2891 181.148 27.2734 180.531 26C179.898 27.3906 178.766 28.4922 177.109 29.0312L176.047 27.5C178.398 26.7422 179.469 24.9219 179.5 23.1406H176.594V21.5469H184.344ZM187.547 20.7188V24.1719H189.469V25.8281H187.547V29.2969H185.547V20.7188H187.547ZM187.547 29.9062V34.9375H185.547V31.4844H177.969V29.9062H187.547ZM203.062 27.375V28.9531H197.562V30.1719H201.516V34.7812H191.594V30.1719H195.578V28.9531H190.094V27.375H203.062ZM201.906 21.1094V22.7031H200.047V24.875H201.812V26.4688H191.328V24.875H193.078V22.7031H191.234V21.1094H201.906ZM193.562 31.7188V33.1875H199.562V31.7188H193.562ZM195.078 24.875H198.047V22.7031H195.078V24.875Z" fill="black"/>
<path d="M219.781 31.9688V32.9844H207.062V31.9688H212.781V28.9688H208.562V21.8594H209.797V24.375H217.016V21.8594H218.219V28.9688H213.984V31.9688H219.781ZM209.797 27.9688H217.016V25.375H209.797V27.9688ZM232.391 20.875V34.7969H231.172V27.25H228.469V26.2188H231.172V20.875H232.391ZM227.625 22.1719V27.0312H222.641V30.4062C225.031 30.4062 226.766 30.3359 228.797 29.9531L228.891 30.9844C226.797 31.3594 225 31.4375 222.484 31.4531H221.422V26.0156H226.438V23.1875H221.375V22.1719H227.625ZM245.469 20.875V26.5312H247.719V27.5625H245.469V34.7656H244.25V20.875H245.469ZM241.875 22.375C241.875 26.3125 240.031 29.8906 235.5 32.125L234.812 31.1562C238.406 29.3672 240.359 26.6953 240.641 23.4062H235.453V22.375H241.875ZM260.031 20.875V34.7656H258.797V20.875H260.031ZM255.922 22.3906C255.906 26.3906 254.047 29.9219 249.391 32.1562L248.719 31.1562C252.477 29.375 254.391 26.7109 254.672 23.3906H249.359V22.3906H255.922Z" fill="black"/>
<path d="M274.544 27.5645C274.544 27.6328 274.53 27.6966 274.503 27.7559C274.476 27.8105 274.437 27.863 274.387 27.9131L268.925 33.1084C268.834 33.2041 268.72 33.252 268.583 33.252C268.501 33.252 268.424 33.2314 268.351 33.1904C268.278 33.1494 268.221 33.0924 268.18 33.0195C268.139 32.9512 268.118 32.8714 268.118 32.7803C268.118 32.6572 268.161 32.5479 268.248 32.4521L273.389 27.5645L268.248 22.6768C268.161 22.5811 268.118 22.4717 268.118 22.3486C268.118 22.2575 268.139 22.1777 268.18 22.1094C268.221 22.0365 268.278 21.9795 268.351 21.9385C268.424 21.8975 268.501 21.877 268.583 21.877C268.72 21.877 268.834 21.9225 268.925 22.0137L274.387 27.2158C274.437 27.266 274.476 27.3206 274.503 27.3799C274.53 27.4346 274.544 27.4961 274.544 27.5645Z" fill="black"/>
</svg>
